<svg xmlns="http://www.w3.org/2000/svg" width="1440" height="1800" viewBox="0 0 1440 1800">
  <rect width="1440" height="1800" fill="#fbfcfd"/>

  <rect x="110" y="80" width="1220" height="80" rx="18" fill="#ffffff" stroke="#e3e8ed"/>
  <text x="150" y="132" font-family="Inter, Arial, sans-serif" font-size="28" fill="#2f2a25">Logo</text>
  <text x="1160" y="132" font-family="Inter, Arial, sans-serif" font-size="18" fill="#6f665d">Navigation</text>

  <rect x="110" y="210" width="1220" height="520" rx="28" fill="#ffffff" stroke="#e3e8ed"/>
  <text x="170" y="330" font-family="Georgia, serif" font-size="64" fill="#2e2924">Minimal</text>
  <text x="170" y="400" font-family="Inter, Arial, sans-serif" font-size="28" fill="#5f554b">Ruhig. Klar. Warm.</text>
  <rect x="170" y="450" width="210" height="56" rx="28" fill="#2f2a25"/>
  <text x="205" y="486" font-family="Inter, Arial, sans-serif" font-size="18" fill="#f7f3ed">Mehr entdecken</text>

  <rect x="840" y="270" width="410" height="360" rx="24" fill="#f4f8f9" stroke="#dfe7eb"/>
  <line x1="890" y1="320" x2="1200" y2="570" stroke="#b8c4cc" stroke-width="3"/>
  <line x1="1200" y1="320" x2="890" y2="570" stroke="#b8c4cc" stroke-width="3"/>

  <text x="110" y="820" font-family="Inter, Arial, sans-serif" font-size="22" fill="#7b7166">Über mich / Über die Marke</text>
  <rect x="110" y="860" width="1220" height="180" rx="20" fill="#ffffff" stroke="#e3e8ed"/>
  <text x="160" y="940" font-family="Inter, Arial, sans-serif" font-size="24" fill="#3a332d">Kurzer, hochwertiger Text in 2–3 Zeilen.</text>

  <text x="110" y="1140" font-family="Inter, Arial, sans-serif" font-size="22" fill="#7b7166">Leistungen</text>
  <rect x="110" y="1180" width="390" height="220" rx="20" fill="#ffffff" stroke="#e3e8ed"/>
  <rect x="525" y="1180" width="390" height="220" rx="20" fill="#ffffff" stroke="#e3e8ed"/>
  <rect x="940" y="1180" width="390" height="220" rx="20" fill="#ffffff" stroke="#e3e8ed"/>

  <text x="110" y="1520" font-family="Inter, Arial, sans-serif" font-size="22" fill="#7b7166">Kontakt</text>
  <rect x="110" y="1560" width="1220" height="120" rx="22" fill="#2f2a25"/>
  <text x="170" y="1635" font-family="Inter, Arial, sans-serif" font-size="24" fill="#f7f3ed">E-Mail / Call to Action</text>
</svg>
